<?xml version="1.0" encoding="UTF-8"?>
<svg version="1.1" viewBox="0 0 2800 2800" xmlns="http://www.w3.org/2000/svg">
 <g transform="translate(0 1747.6)">
  <rect y="-1747.6" width="2800" height="2800" fill="#008080"/>
 </g>
 <g transform="translate(-56.53)">
  <path transform="translate(0 1747.6)" d="m869.34 232.92c-117.18 0-211.56 100.94-211.56 226.31v593.12h261.19v-115.69c0-47.566 33.125-43.281 33.125-43.281h61.969v-84.719c-41.615 1.8377-68.511-23.603-73.875-58.469 11.537 19.681 49.636 23.073 73.875 23.156v-5.3438c0-57.655 33.156-54.75 33.156-54.75h64.562v-254.03c1e-4 -125.37-94.347-226.31-211.53-226.31h-30.906z"/>
  <path transform="translate(0 1747.6)" d="m1957.1 232.92c-117.18 0-211.53 100.94-211.53 226.31v254.03h64.562s33.156-2.9056 33.156 54.75v5.3438c24.239-0.083 62.338-3.4754 73.875-23.156-5.364 34.866-32.26 60.306-73.875 58.469v84.719h61.969s33.125-4.2846 33.125 43.281v115.69h261.19v-593.12c0-125.37-94.378-226.31-211.56-226.31h-30.906z"/>
  <g transform="matrix(.60479 0 0 .60479 608.97 1297.2)">
   <path d="m448.56 1096.8c193.76 0 349.75 166.91 349.75 374.21v419.99h-106.74s-54.812-4.7898-54.812 90.542v8.8366c-40.079-0.1373-103.1-5.7499-122.17-38.292 8.8693 57.65 53.365 99.728 122.17 96.69v140.1h-102.45s-54.812-7.1245-54.812 71.525v224.37h-431.84v-1013.8c0-207.29 156.05-374.21 349.81-374.21z" fill="#0b2228"/>
   <path d="m429.17 1207c7.4603-0.018 14.925 0.02 22.361 0.056 115.84 3.3738 218.67 100.86 233.29 214.95 6.1986 40.934 6.4731 82.197 5.661 123.52-7.9786 24.692-37.207 36.719-63.63 49.93-143.28 71.639-306.58 55.877-306.58 55.877s29.498 13.709 107.46 9.4952c6.3212 14.749 17.893 80.067-74.816 107.46-92.709 27.391-242.32-35.872-170.68-134.9 46.354 12.642 54.798 8.4351 54.798 8.4351s-13.176 0.8373-55.646-18.981c-27.639-19.645-27.435-136.18-20.325-203.21 17.236-100.67 98.541-191.9 201.3-208.49 22.034-3.4393 44.419-4.0879 66.8-4.1326z" fill="#fff"/>
   <path transform="matrix(-2.0491 0 0 2.0491 11824 -823.85)" d="m5505.1 1257.1a41.291 41.291 0 0 1 -41.291 41.291 41.291 41.291 0 0 1 -41.291 -41.291 41.291 41.291 0 0 1 41.291 -41.291 41.291 41.291 0 0 1 41.291 41.291z" fill="#fff"/>
   <path transform="matrix(-.69264 0 0 .69264 4454.6 881.32)" d="m5505.1 1257.1a41.291 41.291 0 0 1 -41.291 41.291 41.291 41.291 0 0 1 -41.291 -41.291 41.291 41.291 0 0 1 41.291 -41.291 41.291 41.291 0 0 1 41.291 41.291z"/>
  </g>
  <path d="m1937.1 1960.6c-117.18 0-211.52 100.95-211.52 226.32v254h64.557s33.15-2.8968 33.15 54.759v5.3443c24.239-0.083 62.352-3.4775 73.89-23.158-5.364 34.866-32.274 60.314-73.89 58.476v84.733h61.962s33.15-4.3088 33.15 43.257v135.7h261.17v-613.11c0-125.37-94.377-226.32-211.56-226.32z" fill="#0b2228"/>
  <path d="m1948.8 2027.2c-4.5118-0.011-9.0265 0.012-13.524 0.034-70.057 2.0405-132.25 60.996-141.09 130-3.7488 24.756-3.9148 15.712-3.4237 40.705 4.8254 14.934 22.502 22.207 38.482 30.197 86.652 43.326 185.41 33.793 185.41 33.793s-17.84 8.2911-64.989 5.7426c-3.823 8.92-10.821 48.423 45.248 64.989s146.55-21.695 103.22-81.587c-28.034 7.6457-33.141 5.1015-33.141 5.1015s7.9685 0.5063 33.654-11.479c16.716-11.881 16.592-48.357 12.292-88.9-10.424-60.883-59.596-116.06-121.75-126.09-13.326-2.0801-26.864-2.4723-40.4-2.4994z" fill="#dbe2e3"/>
  <path transform="matrix(1.2392 0 0 1.2392 -4942.6 798.98)" d="m5505.1 1257.1a41.291 41.291 0 0 1 -41.291 41.291 41.291 41.291 0 0 1 -41.291 -41.291 41.291 41.291 0 0 1 41.291 -41.291 41.291 41.291 0 0 1 41.291 41.291z" fill="#fff"/>
  <path transform="matrix(.4189 0 0 .4189 -485.68 1830.2)" d="m5505.1 1257.1a41.291 41.291 0 0 1 -41.291 41.291 41.291 41.291 0 0 1 -41.291 -41.291 41.291 41.291 0 0 1 41.291 -41.291 41.291 41.291 0 0 1 41.291 41.291z"/>
  <g transform="matrix(-.54436 0 0 .54436 2705.4 1203.4)">
   <path transform="matrix(1.6763 0 0 1.7829 -4985.1 -520.77)" d="m3834.2 748.83a65.135 63.972 0 0 1 -65.135 63.972 65.135 63.972 0 0 1 -65.135 -63.972 65.135 63.972 0 0 1 65.135 -63.972 65.135 63.972 0 0 1 65.135 63.972z" fill="#ff0"/>
   <path d="m1369.4 816.79c-0.5627-0.0151-1.1061 5e-3 -1.6762 0.0523-2.2794 0.18694-4.6263 0.89006-6.8621 2.1477-4.2071 2.3665-6.7341 6.2996-8.2766 10.581-1.5665-0.83722-3.1225-1.7044-4.8193-2.2001-4.5656-1.3338-9.6482-1.196-14.196 1.362-4.5593 2.5647-7.3271 6.8612-8.6955 11.524-0.3277 1.1164-0.39 2.3043-0.5763 3.4573-3.8002-0.44054-7.9218-3e-3 -12.205 2.5668-10.725 6.4347-14.025 18.589-10.058 28.968 3.9672 10.379 15.04 19.028 31.744 19.591 10.599 0.35772 19.887 9.788 26.454 19.644 2.0185 3.0295 3.7333 6.0136 5.1858 8.748 1.604-0.52309 3.1958-1.1313 4.767-1.7286-1.5769-3.0275-3.4873-6.3814-5.7622-9.7957-6.9389-10.414-17.121-21.445-30.487-21.896-15.082-0.50904-24.043-7.9815-27.239-16.344-3.1964-8.3621-0.8104-17.576 7.9622-22.839 3.5182-2.1109 6.4421-2.3982 9.1147-2.043-0.018 2.064 0.064 4.0913 0.3666 6.0765 0.7166 4.6886 2.2475 9.0282 4.3479 12.205 1.0502 1.5886 2.2495 2.8766 3.7716 3.7716 1.522 0.89499 3.4786 1.2851 5.2906 0.68098 1.7794-0.59306 3.143-2.0328 3.8241-3.6144 0.681-1.5816 0.8361-3.3003 0.681-5.0812-0.3107-3.5618-1.8413-7.4408-4.3479-10.896-2.0872-2.877-5.0356-5.1982-8.486-6.7574 0.1575-1.1061 0.1706-2.2751 0.4715-3.3002 1.099-3.745 3.0989-6.7687 6.3383-8.5909 3.2513-1.8288 6.7513-1.933 10.319-0.89051 1.712 0.50006 3.3966 1.316 5.0288 2.3049-0.6155 3.5926-0.8536 7.2531-0.4191 10.634 0.5897 4.5841 1.8929 8.6249 4.1384 11.367 1.1228 1.3711 2.6071 2.519 4.505 2.7239 1.8978 0.20497 3.7876-0.69706 5.2383-2.1477 2.9671-2.9672 3.3337-7.3325 2.1478-11.262-1.1863-3.9299-3.7626-7.8095-7.1241-11.105-0.9149-0.89675-2.0122-1.6143-3.0384-2.4096 0.017-0.0322-0.017-0.0727 0-0.10476 1.1918-3.8624 3.2811-7.0447 6.4955-8.8528 3.3272-1.8715 6.3224-1.9644 9.2194-0.89051 2.8973 1.0739 5.7039 3.4951 7.91 6.9146 4.4123 6.8389 6.3108 17.562 2.6716 28.025v0.0523c-4.2758 12.362-0.5676 29.11 3.8762 43.059 1.2554 3.9401 2.5139 7.3758 3.7193 10.529 1.4295-0.93559 2.8589-1.8793 4.243-2.8811-1.0593-2.8287-2.1059-5.912-3.143-9.1671-4.3177-13.553-7.4014-29.858-3.9287-39.916v-0.0523c4.1595-11.958 2.1409-24.102-3.1954-32.373-2.668-4.1356-6.2014-7.3592-10.372-8.9052-1.5641-0.57975-3.2358-0.8999-4.9242-0.94289zm-13.567 21.163c0.1458 0.13645 0.3295 0.22759 0.4715 0.36668 2.8528 2.797 5.0119 6.1244 5.8669 8.9575 0.8549 2.8331 0.529 4.8139-0.8906 6.2336-0.7427 0.74277-1.0052 0.69688-1.1524 0.68099-0.1475-0.0151-0.554-0.15959-1.1524-0.89052-1.1971-1.4618-2.5309-4.8545-3.0383-8.8004-0.2687-2.0904-0.2799-4.3227-0.1039-6.5479zm-26.873 12.415c1.7748 1.1415 3.3927 2.5457 4.6622 4.2954 2.0021 2.7598 3.1973 6.055 3.4049 8.4337 0.104 1.1894-0.034 2.0873-0.262 2.6192-0.2289 0.53184-0.3714 0.70005-0.7856 0.83813-0.3814 0.12706-0.6288 0.12924-1.2049-0.20954-0.5761-0.3388-1.333-1.0993-2.0953-2.2525-1.5249-2.3064-2.938-6.0772-3.5621-10.162-0.1782-1.1668-0.1039-2.3635-0.1576-3.5621z" color="#000000" fill="#f60" style="block-progression:tb;text-indent:0;text-transform:none"/>
   <path d="m1402.9 949.9c-1.3948 0.45791-2.7646 1.0389-4.0859 1.8334-0.1307 0.0783-0.239 0.18129-0.3666 0.26191 1.5177-0.65691 3.0037-1.3554 4.4525-2.0953zm21.372 8.748c-7.687 8.0028-19.19 14.276-32.373 17.339 4.895 7.7583 15.684 9.8994 24.306 4.7145 8.0415-4.8361 11.354-14.338 8.067-22.053z" fill="#4d4d4d"/>
   <path d="m1429.7 921.56c-4.7591 17.196-26.669 32.472-51.021 36.092-8.9687 1.3332-16 0.0595-21.163-2.462-1.2121 8.5204 5.817 25.333 28.234 22.001 33.882-5.0365 59.389-31.701 43.95-55.631z" fill="#520"/>
   <path d="m1425.5 899.56c-2.942 19.293-29.501 37.586-56.103 41.54-9.9987 1.4863-17.257 0.62421-22.525-1.4144-1.1533 8.2931 9.2523 21.319 31.797 17.967 34.601-5.1434 64.348-33.774 46.831-58.093z" fill="#333"/>
   <path d="m1420.9 881.85c-19.537 27.735-50.766 45.904-86.118 46.516 3.1401 7.0284 11.608 16.158 34.678 12.729 34.794-5.172 69.585-34.84 51.441-59.245z" fill="#1a1a1a"/>
   <path d="m1429.7 921.56c-4.7591 17.196-26.669 32.472-51.021 36.092-8.9687 1.3332-16 0.0595-21.163-2.462-1.2121 8.5204 5.817 25.333 28.234 22.001 33.882-5.0365 59.389-31.701 43.95-55.631z" fill="#1a1a1a"/>
   <path d="m1292.9 905s-66.29-43.868-48.743-111.13c17.547-67.265 88.712-80.913 98.46-66.29 9.7487 14.623-38.019 20.472-56.541 42.894s-45.818 64.34 6.8239 134.53z" fill="#fff"/>
   <path d="m1233.5 951.79s-46.793 36.07-38.994 46.793c7.7988 10.723 38.994-46.793 38.994-46.793z" fill="#ff0"/>
   <path d="m1171.1 872.14s-53.768 24.485-48.612 36.701c5.1564 12.216 48.612-36.701 48.612-36.701z" fill="#ff0"/>
   <path d="m1137.9 800.84s-58.731 6.4202-57.659 19.636c1.0727 13.216 57.659-19.636 57.659-19.636z" fill="#ff0"/>
   <path d="m1147.8 704.17s-47.5-35.134-55.679-24.698c-8.1792 10.436 55.679 24.698 55.679 24.698z" fill="#ff0"/>
   <path d="m1203.4 642.26s-23.34-54.276-35.662-49.379c-12.322 4.8964 35.662 49.379 35.662 49.379z" fill="#ff0"/>
   <path d="m1357.1 606.04s32.583-46.132 22.327-57.772c-10.257-11.64-22.327 57.772-22.327 57.772z" fill="#ff0"/>
   <path d="m1281.9 604.28s3.4192-56.375-11.428-60.873c-14.848-4.4975 11.428 60.873 11.428 60.873z" fill="#ff0"/>
   <path d="m1425.4 648.77s41.267-38.56 33.586-52.039c-7.6813-13.479-33.586 52.039-33.586 52.039z" fill="#ff0"/>
   <path d="m1463.4 739.18s56.477-0.49326 59.935-15.617c3.4583-15.124-59.935 15.617-59.935 15.617z" fill="#ff0"/>
   <path d="m1472.8 835.8s51.454 23.288 60.948 11.019c9.494-12.27-60.948-11.019-60.948-11.019z" fill="#ff0"/>
  </g>
  <g transform="matrix(.6666 0 0 .6666 973.15 788.01)">
   <path transform="matrix(1.6763 0 0 1.7829 -4985.1 -520.77)" d="m3834.2 748.83a65.135 63.972 0 0 1 -65.135 63.972 65.135 63.972 0 0 1 -65.135 -63.972 65.135 63.972 0 0 1 65.135 -63.972 65.135 63.972 0 0 1 65.135 63.972z" fill="#ff0"/>
   <path d="m1369.4 816.79c-0.5627-0.0151-1.1061 5e-3 -1.6762 0.0523-2.2794 0.18694-4.6263 0.89006-6.8621 2.1477-4.2071 2.3665-6.7341 6.2996-8.2766 10.581-1.5665-0.83722-3.1225-1.7044-4.8193-2.2001-4.5656-1.3338-9.6482-1.196-14.196 1.362-4.5593 2.5647-7.3271 6.8612-8.6955 11.524-0.3277 1.1164-0.39 2.3043-0.5763 3.4573-3.8002-0.44054-7.9218-3e-3 -12.205 2.5668-10.725 6.4347-14.025 18.589-10.058 28.968 3.9672 10.379 15.04 19.028 31.744 19.591 10.599 0.35772 19.887 9.788 26.454 19.644 2.0185 3.0295 3.7333 6.0136 5.1858 8.748 1.604-0.52309 3.1958-1.1313 4.767-1.7286-1.5769-3.0275-3.4873-6.3814-5.7622-9.7957-6.9389-10.414-17.121-21.445-30.487-21.896-15.082-0.50904-24.043-7.9815-27.239-16.344-3.1964-8.3621-0.8104-17.576 7.9622-22.839 3.5182-2.1109 6.4421-2.3982 9.1147-2.043-0.018 2.064 0.064 4.0913 0.3666 6.0765 0.7166 4.6886 2.2475 9.0282 4.3479 12.205 1.0502 1.5886 2.2495 2.8766 3.7716 3.7716 1.522 0.89499 3.4786 1.2851 5.2906 0.68098 1.7794-0.59306 3.143-2.0328 3.8241-3.6144 0.681-1.5816 0.8361-3.3003 0.681-5.0812-0.3107-3.5618-1.8413-7.4408-4.3479-10.896-2.0872-2.877-5.0356-5.1982-8.486-6.7574 0.1575-1.1061 0.1706-2.2751 0.4715-3.3002 1.099-3.745 3.0989-6.7687 6.3383-8.5909 3.2513-1.8288 6.7513-1.933 10.319-0.89051 1.712 0.50006 3.3966 1.316 5.0288 2.3049-0.6155 3.5926-0.8536 7.2531-0.4191 10.634 0.5897 4.5841 1.8929 8.6249 4.1384 11.367 1.1228 1.3711 2.6071 2.519 4.505 2.7239 1.8978 0.20497 3.7876-0.69706 5.2383-2.1477 2.9671-2.9672 3.3337-7.3325 2.1478-11.262-1.1863-3.9299-3.7626-7.8095-7.1241-11.105-0.9149-0.89675-2.0122-1.6143-3.0384-2.4096 0.017-0.0322-0.017-0.0727 0-0.10476 1.1918-3.8624 3.2811-7.0447 6.4955-8.8528 3.3272-1.8715 6.3224-1.9644 9.2194-0.89051 2.8973 1.0739 5.7039 3.4951 7.91 6.9146 4.4123 6.8389 6.3108 17.562 2.6716 28.025v0.0523c-4.2758 12.362-0.5676 29.11 3.8762 43.059 1.2554 3.9401 2.5139 7.3758 3.7193 10.529 1.4295-0.93559 2.8589-1.8793 4.243-2.8811-1.0593-2.8287-2.1059-5.912-3.143-9.1671-4.3177-13.553-7.4014-29.858-3.9287-39.916v-0.0523c4.1595-11.958 2.1409-24.102-3.1954-32.373-2.668-4.1356-6.2014-7.3592-10.372-8.9052-1.5641-0.57975-3.2358-0.8999-4.9242-0.94289zm-13.567 21.163c0.1458 0.13645 0.3295 0.22759 0.4715 0.36668 2.8528 2.797 5.0119 6.1244 5.8669 8.9575 0.8549 2.8331 0.529 4.8139-0.8906 6.2336-0.7427 0.74277-1.0052 0.69688-1.1524 0.68099-0.1475-0.0151-0.554-0.15959-1.1524-0.89052-1.1971-1.4618-2.5309-4.8545-3.0383-8.8004-0.2687-2.0904-0.2799-4.3227-0.1039-6.5479zm-26.873 12.415c1.7748 1.1415 3.3927 2.5457 4.6622 4.2954 2.0021 2.7598 3.1973 6.055 3.4049 8.4337 0.104 1.1894-0.034 2.0873-0.262 2.6192-0.2289 0.53184-0.3714 0.70005-0.7856 0.83813-0.3814 0.12706-0.6288 0.12924-1.2049-0.20954-0.5761-0.3388-1.333-1.0993-2.0953-2.2525-1.5249-2.3064-2.938-6.0772-3.5621-10.162-0.1782-1.1668-0.1039-2.3635-0.1576-3.5621z" color="#000000" fill="#f60" style="block-progression:tb;text-indent:0;text-transform:none"/>
   <path d="m1402.9 949.9c-1.3948 0.45791-2.7646 1.0389-4.0859 1.8334-0.1307 0.0783-0.239 0.18129-0.3666 0.26191 1.5177-0.65691 3.0037-1.3554 4.4525-2.0953zm21.372 8.748c-7.687 8.0028-19.19 14.276-32.373 17.339 4.895 7.7583 15.684 9.8994 24.306 4.7145 8.0415-4.8361 11.354-14.338 8.067-22.053z" fill="#4d4d4d"/>
   <path d="m1429.7 921.56c-4.7591 17.196-26.669 32.472-51.021 36.092-8.9687 1.3332-16 0.0595-21.163-2.462-1.2121 8.5204 5.817 25.333 28.234 22.001 33.882-5.0365 59.389-31.701 43.95-55.631z" fill="#520"/>
   <path d="m1425.5 899.56c-2.942 19.293-29.501 37.586-56.103 41.54-9.9987 1.4863-17.257 0.62421-22.525-1.4144-1.1533 8.2931 9.2523 21.319 31.797 17.967 34.601-5.1434 64.348-33.774 46.831-58.093z" fill="#333"/>
   <path d="m1420.9 881.85c-19.537 27.735-50.766 45.904-86.118 46.516 3.1401 7.0284 11.608 16.158 34.678 12.729 34.794-5.172 69.585-34.84 51.441-59.245z" fill="#1a1a1a"/>
   <path d="m1429.7 921.56c-4.7591 17.196-26.669 32.472-51.021 36.092-8.9687 1.3332-16 0.0595-21.163-2.462-1.2121 8.5204 5.817 25.333 28.234 22.001 33.882-5.0365 59.389-31.701 43.95-55.631z" fill="#1a1a1a"/>
   <path d="m1292.9 905s-66.29-43.868-48.743-111.13c17.547-67.265 88.712-80.913 98.46-66.29 9.7487 14.623-38.019 20.472-56.541 42.894s-45.818 64.34 6.8239 134.53z" fill="#fff"/>
   <path d="m1233.5 951.79s-46.793 36.07-38.994 46.793c7.7988 10.723 38.994-46.793 38.994-46.793z" fill="#ff0"/>
   <path d="m1171.1 872.14s-53.768 24.485-48.612 36.701c5.1564 12.216 48.612-36.701 48.612-36.701z" fill="#ff0"/>
   <path d="m1137.9 800.84s-58.731 6.4202-57.659 19.636c1.0727 13.216 57.659-19.636 57.659-19.636z" fill="#ff0"/>
   <path d="m1147.8 704.17s-47.5-35.134-55.679-24.698c-8.1792 10.436 55.679 24.698 55.679 24.698z" fill="#ff0"/>
   <path d="m1203.4 642.26s-23.34-54.276-35.662-49.379c-12.322 4.8964 35.662 49.379 35.662 49.379z" fill="#ff0"/>
   <path d="m1357.1 606.04s32.583-46.132 22.327-57.772c-10.257-11.64-22.327 57.772-22.327 57.772z" fill="#ff0"/>
   <path d="m1281.9 604.28s3.4192-56.375-11.428-60.873c-14.848-4.4975 11.428 60.873 11.428 60.873z" fill="#ff0"/>
   <path d="m1425.4 648.77s41.267-38.56 33.586-52.039c-7.6813-13.479-33.586 52.039-33.586 52.039z" fill="#ff0"/>
   <path d="m1463.4 739.18s56.477-0.49326 59.935-15.617c3.4583-15.124-59.935 15.617-59.935 15.617z" fill="#ff0"/>
   <path d="m1472.8 835.8s51.454 23.288 60.948 11.019c9.494-12.27-60.948-11.019-60.948-11.019z" fill="#ff0"/>
  </g>
  <g transform="matrix(-.8714 0 0 .8714 3216.6 234.29)">
   <path transform="matrix(1.6763 0 0 1.7829 -4985.1 -520.77)" d="m3834.2 748.83a65.135 63.972 0 0 1 -65.135 63.972 65.135 63.972 0 0 1 -65.135 -63.972 65.135 63.972 0 0 1 65.135 -63.972 65.135 63.972 0 0 1 65.135 63.972z" fill="#ff0"/>
   <path d="m1369.4 816.79c-0.5627-0.0151-1.1061 5e-3 -1.6762 0.0523-2.2794 0.18694-4.6263 0.89006-6.8621 2.1477-4.2071 2.3665-6.7341 6.2996-8.2766 10.581-1.5665-0.83722-3.1225-1.7044-4.8193-2.2001-4.5656-1.3338-9.6482-1.196-14.196 1.362-4.5593 2.5647-7.3271 6.8612-8.6955 11.524-0.3277 1.1164-0.39 2.3043-0.5763 3.4573-3.8002-0.44054-7.9218-3e-3 -12.205 2.5668-10.725 6.4347-14.025 18.589-10.058 28.968 3.9672 10.379 15.04 19.028 31.744 19.591 10.599 0.35772 19.887 9.788 26.454 19.644 2.0185 3.0295 3.7333 6.0136 5.1858 8.748 1.604-0.52309 3.1958-1.1313 4.767-1.7286-1.5769-3.0275-3.4873-6.3814-5.7622-9.7957-6.9389-10.414-17.121-21.445-30.487-21.896-15.082-0.50904-24.043-7.9815-27.239-16.344-3.1964-8.3621-0.8104-17.576 7.9622-22.839 3.5182-2.1109 6.4421-2.3982 9.1147-2.043-0.018 2.064 0.064 4.0913 0.3666 6.0765 0.7166 4.6886 2.2475 9.0282 4.3479 12.205 1.0502 1.5886 2.2495 2.8766 3.7716 3.7716 1.522 0.89499 3.4786 1.2851 5.2906 0.68098 1.7794-0.59306 3.143-2.0328 3.8241-3.6144 0.681-1.5816 0.8361-3.3003 0.681-5.0812-0.3107-3.5618-1.8413-7.4408-4.3479-10.896-2.0872-2.877-5.0356-5.1982-8.486-6.7574 0.1575-1.1061 0.1706-2.2751 0.4715-3.3002 1.099-3.745 3.0989-6.7687 6.3383-8.5909 3.2513-1.8288 6.7513-1.933 10.319-0.89051 1.712 0.50006 3.3966 1.316 5.0288 2.3049-0.6155 3.5926-0.8536 7.2531-0.4191 10.634 0.5897 4.5841 1.8929 8.6249 4.1384 11.367 1.1228 1.3711 2.6071 2.519 4.505 2.7239 1.8978 0.20497 3.7876-0.69706 5.2383-2.1477 2.9671-2.9672 3.3337-7.3325 2.1478-11.262-1.1863-3.9299-3.7626-7.8095-7.1241-11.105-0.9149-0.89675-2.0122-1.6143-3.0384-2.4096 0.017-0.0322-0.017-0.0727 0-0.10476 1.1918-3.8624 3.2811-7.0447 6.4955-8.8528 3.3272-1.8715 6.3224-1.9644 9.2194-0.89051 2.8973 1.0739 5.7039 3.4951 7.91 6.9146 4.4123 6.8389 6.3108 17.562 2.6716 28.025v0.0523c-4.2758 12.362-0.5676 29.11 3.8762 43.059 1.2554 3.9401 2.5139 7.3758 3.7193 10.529 1.4295-0.93559 2.8589-1.8793 4.243-2.8811-1.0593-2.8287-2.1059-5.912-3.143-9.1671-4.3177-13.553-7.4014-29.858-3.9287-39.916v-0.0523c4.1595-11.958 2.1409-24.102-3.1954-32.373-2.668-4.1356-6.2014-7.3592-10.372-8.9052-1.5641-0.57975-3.2358-0.8999-4.9242-0.94289zm-13.567 21.163c0.1458 0.13645 0.3295 0.22759 0.4715 0.36668 2.8528 2.797 5.0119 6.1244 5.8669 8.9575 0.8549 2.8331 0.529 4.8139-0.8906 6.2336-0.7427 0.74277-1.0052 0.69688-1.1524 0.68099-0.1475-0.0151-0.554-0.15959-1.1524-0.89052-1.1971-1.4618-2.5309-4.8545-3.0383-8.8004-0.2687-2.0904-0.2799-4.3227-0.1039-6.5479zm-26.873 12.415c1.7748 1.1415 3.3927 2.5457 4.6622 4.2954 2.0021 2.7598 3.1973 6.055 3.4049 8.4337 0.104 1.1894-0.034 2.0873-0.262 2.6192-0.2289 0.53184-0.3714 0.70005-0.7856 0.83813-0.3814 0.12706-0.6288 0.12924-1.2049-0.20954-0.5761-0.3388-1.333-1.0993-2.0953-2.2525-1.5249-2.3064-2.938-6.0772-3.5621-10.162-0.1782-1.1668-0.1039-2.3635-0.1576-3.5621z" color="#000000" fill="#f60" style="block-progression:tb;text-indent:0;text-transform:none"/>
   <path d="m1402.9 949.9c-1.3948 0.45791-2.7646 1.0389-4.0859 1.8334-0.1307 0.0783-0.239 0.18129-0.3666 0.26191 1.5177-0.65691 3.0037-1.3554 4.4525-2.0953zm21.372 8.748c-7.687 8.0028-19.19 14.276-32.373 17.339 4.895 7.7583 15.684 9.8994 24.306 4.7145 8.0415-4.8361 11.354-14.338 8.067-22.053z" fill="#4d4d4d"/>
   <path d="m1429.7 921.56c-4.7591 17.196-26.669 32.472-51.021 36.092-8.9687 1.3332-16 0.0595-21.163-2.462-1.2121 8.5204 5.817 25.333 28.234 22.001 33.882-5.0365 59.389-31.701 43.95-55.631z" fill="#520"/>
   <path d="m1425.5 899.56c-2.942 19.293-29.501 37.586-56.103 41.54-9.9987 1.4863-17.257 0.62421-22.525-1.4144-1.1533 8.2931 9.2523 21.319 31.797 17.967 34.601-5.1434 64.348-33.774 46.831-58.093z" fill="#333"/>
   <path d="m1420.9 881.85c-19.537 27.735-50.766 45.904-86.118 46.516 3.1401 7.0284 11.608 16.158 34.678 12.729 34.794-5.172 69.585-34.84 51.441-59.245z" fill="#1a1a1a"/>
   <path d="m1429.7 921.56c-4.7591 17.196-26.669 32.472-51.021 36.092-8.9687 1.3332-16 0.0595-21.163-2.462-1.2121 8.5204 5.817 25.333 28.234 22.001 33.882-5.0365 59.389-31.701 43.95-55.631z" fill="#1a1a1a"/>
   <path d="m1292.9 905s-66.29-43.868-48.743-111.13c17.547-67.265 88.712-80.913 98.46-66.29 9.7487 14.623-38.019 20.472-56.541 42.894s-45.818 64.34 6.8239 134.53z" fill="#fff"/>
   <path d="m1233.5 951.79s-46.793 36.07-38.994 46.793c7.7988 10.723 38.994-46.793 38.994-46.793z" fill="#ff0"/>
   <path d="m1171.1 872.14s-53.768 24.485-48.612 36.701c5.1564 12.216 48.612-36.701 48.612-36.701z" fill="#ff0"/>
   <path d="m1137.9 800.84s-58.731 6.4202-57.659 19.636c1.0727 13.216 57.659-19.636 57.659-19.636z" fill="#ff0"/>
   <path d="m1147.8 704.17s-47.5-35.134-55.679-24.698c-8.1792 10.436 55.679 24.698 55.679 24.698z" fill="#ff0"/>
   <path d="m1203.4 642.26s-23.34-54.276-35.662-49.379c-12.322 4.8964 35.662 49.379 35.662 49.379z" fill="#ff0"/>
   <path d="m1357.1 606.04s32.583-46.132 22.327-57.772c-10.257-11.64-22.327 57.772-22.327 57.772z" fill="#ff0"/>
   <path d="m1281.9 604.28s3.4192-56.375-11.428-60.873c-14.848-4.4975 11.428 60.873 11.428 60.873z" fill="#ff0"/>
   <path d="m1425.4 648.77s41.267-38.56 33.586-52.039c-7.6813-13.479-33.586 52.039-33.586 52.039z" fill="#ff0"/>
   <path d="m1463.4 739.18s56.477-0.49326 59.935-15.617c3.4583-15.124-59.935 15.617-59.935 15.617z" fill="#ff0"/>
   <path d="m1472.8 835.8s51.454 23.288 60.948 11.019c9.494-12.27-60.948-11.019-60.948-11.019z" fill="#ff0"/>
  </g>
  <g transform="matrix(1.0853 0 0 1.0853 298.81 -339.91)">
   <path transform="matrix(1.6763 0 0 1.7829 -4985.1 -520.77)" d="m3834.2 748.83a65.135 63.972 0 0 1 -65.135 63.972 65.135 63.972 0 0 1 -65.135 -63.972 65.135 63.972 0 0 1 65.135 -63.972 65.135 63.972 0 0 1 65.135 63.972z" fill="#ff0"/>
   <path d="m1369.4 816.79c-0.5627-0.0151-1.1061 5e-3 -1.6762 0.0523-2.2794 0.18694-4.6263 0.89006-6.8621 2.1477-4.2071 2.3665-6.7341 6.2996-8.2766 10.581-1.5665-0.83722-3.1225-1.7044-4.8193-2.2001-4.5656-1.3338-9.6482-1.196-14.196 1.362-4.5593 2.5647-7.3271 6.8612-8.6955 11.524-0.3277 1.1164-0.39 2.3043-0.5763 3.4573-3.8002-0.44054-7.9218-3e-3 -12.205 2.5668-10.725 6.4347-14.025 18.589-10.058 28.968 3.9672 10.379 15.04 19.028 31.744 19.591 10.599 0.35772 19.887 9.788 26.454 19.644 2.0185 3.0295 3.7333 6.0136 5.1858 8.748 1.604-0.52309 3.1958-1.1313 4.767-1.7286-1.5769-3.0275-3.4873-6.3814-5.7622-9.7957-6.9389-10.414-17.121-21.445-30.487-21.896-15.082-0.50904-24.043-7.9815-27.239-16.344-3.1964-8.3621-0.8104-17.576 7.9622-22.839 3.5182-2.1109 6.4421-2.3982 9.1147-2.043-0.018 2.064 0.064 4.0913 0.3666 6.0765 0.7166 4.6886 2.2475 9.0282 4.3479 12.205 1.0502 1.5886 2.2495 2.8766 3.7716 3.7716 1.522 0.89499 3.4786 1.2851 5.2906 0.68098 1.7794-0.59306 3.143-2.0328 3.8241-3.6144 0.681-1.5816 0.8361-3.3003 0.681-5.0812-0.3107-3.5618-1.8413-7.4408-4.3479-10.896-2.0872-2.877-5.0356-5.1982-8.486-6.7574 0.1575-1.1061 0.1706-2.2751 0.4715-3.3002 1.099-3.745 3.0989-6.7687 6.3383-8.5909 3.2513-1.8288 6.7513-1.933 10.319-0.89051 1.712 0.50006 3.3966 1.316 5.0288 2.3049-0.6155 3.5926-0.8536 7.2531-0.4191 10.634 0.5897 4.5841 1.8929 8.6249 4.1384 11.367 1.1228 1.3711 2.6071 2.519 4.505 2.7239 1.8978 0.20497 3.7876-0.69706 5.2383-2.1477 2.9671-2.9672 3.3337-7.3325 2.1478-11.262-1.1863-3.9299-3.7626-7.8095-7.1241-11.105-0.9149-0.89675-2.0122-1.6143-3.0384-2.4096 0.017-0.0322-0.017-0.0727 0-0.10476 1.1918-3.8624 3.2811-7.0447 6.4955-8.8528 3.3272-1.8715 6.3224-1.9644 9.2194-0.89051 2.8973 1.0739 5.7039 3.4951 7.91 6.9146 4.4123 6.8389 6.3108 17.562 2.6716 28.025v0.0523c-4.2758 12.362-0.5676 29.11 3.8762 43.059 1.2554 3.9401 2.5139 7.3758 3.7193 10.529 1.4295-0.93559 2.8589-1.8793 4.243-2.8811-1.0593-2.8287-2.1059-5.912-3.143-9.1671-4.3177-13.553-7.4014-29.858-3.9287-39.916v-0.0523c4.1595-11.958 2.1409-24.102-3.1954-32.373-2.668-4.1356-6.2014-7.3592-10.372-8.9052-1.5641-0.57975-3.2358-0.8999-4.9242-0.94289zm-13.567 21.163c0.1458 0.13645 0.3295 0.22759 0.4715 0.36668 2.8528 2.797 5.0119 6.1244 5.8669 8.9575 0.8549 2.8331 0.529 4.8139-0.8906 6.2336-0.7427 0.74277-1.0052 0.69688-1.1524 0.68099-0.1475-0.0151-0.554-0.15959-1.1524-0.89052-1.1971-1.4618-2.5309-4.8545-3.0383-8.8004-0.2687-2.0904-0.2799-4.3227-0.1039-6.5479zm-26.873 12.415c1.7748 1.1415 3.3927 2.5457 4.6622 4.2954 2.0021 2.7598 3.1973 6.055 3.4049 8.4337 0.104 1.1894-0.034 2.0873-0.262 2.6192-0.2289 0.53184-0.3714 0.70005-0.7856 0.83813-0.3814 0.12706-0.6288 0.12924-1.2049-0.20954-0.5761-0.3388-1.333-1.0993-2.0953-2.2525-1.5249-2.3064-2.938-6.0772-3.5621-10.162-0.1782-1.1668-0.1039-2.3635-0.1576-3.5621z" color="#000000" fill="#f60" style="block-progression:tb;text-indent:0;text-transform:none"/>
   <path d="m1402.9 949.9c-1.3948 0.45791-2.7646 1.0389-4.0859 1.8334-0.1307 0.0783-0.239 0.18129-0.3666 0.26191 1.5177-0.65691 3.0037-1.3554 4.4525-2.0953zm21.372 8.748c-7.687 8.0028-19.19 14.276-32.373 17.339 4.895 7.7583 15.684 9.8994 24.306 4.7145 8.0415-4.8361 11.354-14.338 8.067-22.053z" fill="#4d4d4d"/>
   <path d="m1429.7 921.56c-4.7591 17.196-26.669 32.472-51.021 36.092-8.9687 1.3332-16 0.0595-21.163-2.462-1.2121 8.5204 5.817 25.333 28.234 22.001 33.882-5.0365 59.389-31.701 43.95-55.631z" fill="#520"/>
   <path d="m1425.5 899.56c-2.942 19.293-29.501 37.586-56.103 41.54-9.9987 1.4863-17.257 0.62421-22.525-1.4144-1.1533 8.2931 9.2523 21.319 31.797 17.967 34.601-5.1434 64.348-33.774 46.831-58.093z" fill="#333"/>
   <path d="m1420.9 881.85c-19.537 27.735-50.766 45.904-86.118 46.516 3.1401 7.0284 11.608 16.158 34.678 12.729 34.794-5.172 69.585-34.84 51.441-59.245z" fill="#1a1a1a"/>
   <path d="m1429.7 921.56c-4.7591 17.196-26.669 32.472-51.021 36.092-8.9687 1.3332-16 0.0595-21.163-2.462-1.2121 8.5204 5.817 25.333 28.234 22.001 33.882-5.0365 59.389-31.701 43.95-55.631z" fill="#1a1a1a"/>
   <path d="m1292.9 905s-66.29-43.868-48.743-111.13c17.547-67.265 88.712-80.913 98.46-66.29 9.7487 14.623-38.019 20.472-56.541 42.894s-45.818 64.34 6.8239 134.53z" fill="#fff"/>
   <path d="m1233.5 951.79s-46.793 36.07-38.994 46.793c7.7988 10.723 38.994-46.793 38.994-46.793z" fill="#ff0"/>
   <path d="m1171.1 872.14s-53.768 24.485-48.612 36.701c5.1564 12.216 48.612-36.701 48.612-36.701z" fill="#ff0"/>
   <path d="m1137.9 800.84s-58.731 6.4202-57.659 19.636c1.0727 13.216 57.659-19.636 57.659-19.636z" fill="#ff0"/>
   <path d="m1147.8 704.17s-47.5-35.134-55.679-24.698c-8.1792 10.436 55.679 24.698 55.679 24.698z" fill="#ff0"/>
   <path d="m1203.4 642.26s-23.34-54.276-35.662-49.379c-12.322 4.8964 35.662 49.379 35.662 49.379z" fill="#ff0"/>
   <path d="m1357.1 606.04s32.583-46.132 22.327-57.772c-10.257-11.64-22.327 57.772-22.327 57.772z" fill="#ff0"/>
   <path d="m1281.9 604.28s3.4192-56.375-11.428-60.873c-14.848-4.4975 11.428 60.873 11.428 60.873z" fill="#ff0"/>
   <path d="m1425.4 648.77s41.267-38.56 33.586-52.039c-7.6813-13.479-33.586 52.039-33.586 52.039z" fill="#ff0"/>
   <path d="m1463.4 739.18s56.477-0.49326 59.935-15.617c3.4583-15.124-59.935 15.617-59.935 15.617z" fill="#ff0"/>
   <path d="m1472.8 835.8s51.454 23.288 60.948 11.019c9.494-12.27-60.948-11.019-60.948-11.019z" fill="#ff0"/>
  </g>
  <g transform="matrix(1.3242 0 0 1.3242 -6047.9 284.17)" fill="#0b2228">
   <path d="m5242.7 1161.3-25.41-13.385c1.8585-3.6885 2.9973-5.9316 3.4173-6.7287 4.3393-8.2374 9.2706-14.296 14.794-18.176 5.5231-3.8797 14.12-6.9888 25.79-9.3275s18.845-4.1178 21.524-5.3372c4.1725-1.9603 7.2912-4.9001 9.356-8.8195 2.8694-5.4473 3.1522-11.26 0.8483-17.438-2.3042-6.1783-7.143-11.21-14.517-15.094-7.1082-3.7444-14.121-4.8502-21.039-3.3177-6.9177 1.5327-13.461 5.9785-19.628 13.337l-24.029-16.732c6.9947-11.506 17.379-18.935 31.154-22.287 13.774-3.352 28.301-1.0036 43.58 7.045 16.076 8.4688 26.65 19.407 31.723 32.815 5.0726 13.408 4.6694 25.692-1.2096 36.852-3.2546 6.178-8.0779 11.105-14.47 14.782-6.3923 3.6766-17.804 7.255-34.234 10.735-8.5022 1.8014-14.254 3.8206-17.257 6.0574-3.0031 2.2371-6.4679 7.2435-10.394 15.019zm-45.252 24.281 14.75-28 28 14.75-14.75 28z"/>
   <path d="m5295.6 336.78h-54.164c-0.1417-7.7883-0.2125-12.532-0.2124-14.231-1e-4 -17.559 2.9029-32.003 8.7087-43.332 5.8058-11.328 17.418-24.073 34.835-38.234s27.826-23.436 31.224-27.826c5.2393-6.9384 7.859-14.585 7.8592-22.94-2e-4 -11.611-4.6378-21.559-13.913-29.844-9.2755-8.2837-21.772-12.426-37.49-12.426-15.152 2.4e-4 -27.826 4.3192-38.021 12.957-10.196 8.6383-17.205 21.808-21.029 39.508l-54.802-6.7971c1.5577-25.347 12.355-46.872 32.392-64.572 20.037-17.701 46.341-26.551 78.91-26.551 34.269 3.2e-4 61.528 8.9569 81.778 26.87 20.25 17.913 30.374 38.765 30.375 62.555-3e-4 13.17-3.7174 25.631-11.152 37.384-7.4345 11.754-23.33 27.755-47.686 48.005-12.603 10.479-20.427 18.905-23.471 25.277-3.0446 6.3724-4.4253 17.772-4.1419 34.198zm-54.164 80.291v-59.687h59.687v59.687z"/>
   <path d="m5158.2 944.69-26.62 10.779c-1.6193-3.7996-2.5984-6.1169-2.9365-6.952-3.4944-8.6298-4.942-16.306-4.3431-23.029s3.7696-15.297 9.5118-25.723c5.7421-10.426 9.0116-17.055 9.8084-19.889 1.1941-4.4527 0.9599-8.7322-0.7026-12.838-2.3109-5.7067-6.5698-9.6729-12.777-11.899-6.2071-2.2254-13.173-1.7742-20.898 1.3537-7.4468 3.0154-12.816 7.6603-16.108 13.934-3.2918 6.2744-4.1161 14.142-2.4726 23.602l-28.286 7.5652c-4.2789-12.768-3.2555-25.495 3.0697-38.182s17.491-22.271 33.498-28.753c16.842-6.8194 32.021-7.8421 45.538-3.0682 13.517 4.7742 22.642 13.007 27.377 24.699 2.6207 6.4724 3.2736 13.336 1.959 20.592-1.3148 7.256-5.9427 18.284-13.883 33.082-4.1087 7.6584-6.277 13.356-6.5053 17.094-0.2281 3.7378 1.3617 9.615 4.7699 17.632zm-10.642 50.239-11.878-29.334 29.334-11.878 11.878 29.334z"/>
   <path d="m5356.9 749.79-34.449-14.592c2.0084-4.9915 3.241-8.0278 3.6988-9.1086 4.7303-11.168 10.468-19.572 17.212-25.213 6.7445-5.641 17.563-10.618 32.456-14.933 14.892-4.3141 24.011-7.4093 27.355-9.2857 5.2014-3.0016 8.9275-7.1592 11.179-12.473 3.128-7.3852 2.8583-14.962-0.8092-22.729-3.6676-7.7673-10.5-13.768-20.496-18.003-9.637-4.0818-18.861-4.749-27.673-2.0021-8.8117 2.7473-16.818 9.2348-24.018 19.463l-33.023-19.086c7.8192-15.702 20.485-26.483 37.998-32.343 17.512-5.8598 36.626-4.4027 57.341 4.3713 21.795 9.232 36.719 22.272 44.773 39.12 8.0531 16.848 8.8753 32.838 2.4665 47.968-3.5479 8.3759-9.2692 15.3-17.164 20.773-7.8949 5.4726-22.315 11.367-43.261 17.685-10.839 3.2697-18.085 6.5208-21.738 9.7531-3.6531 3.2329-7.6023 10.111-11.847 20.635zm-56.079 36.474 16.08-37.962 37.962 16.08-16.08 37.962z"/>
   <path d="m5128.1 612.21-42.739 13.551c-2.0602-6.11-3.3029-9.8354-3.7278-11.176-4.3931-13.855-5.716-25.978-3.969-36.37 1.747-10.391 7.7209-23.352 17.922-38.883 10.201-15.531 16.093-25.453 17.676-29.768 2.3984-6.7856 2.5523-13.475 0.4623-20.067-2.9051-9.162-9.053-15.851-18.444-20.068-9.3912-4.2158-20.288-4.3578-32.691-0.42563-11.956 3.7908-20.876 10.369-26.759 19.736-5.884 9.3668-8.1202 21.512-6.7087 36.435l-44.942 8.3468c-5.1122-20.39-1.9773-40.075 9.4049-59.055 11.382-18.98 29.923-32.544 55.622-40.692 27.04-8.5729 50.79-8.3252 71.249 0.74303 20.46 9.0688 33.665 22.989 39.617 41.76 3.2946 10.392 3.479 21.154 0.5535 32.288-2.9258 11.134-11.465 27.737-25.618 49.808-7.323 11.422-11.388 20.027-12.196 25.817-0.8082 5.7899 0.9543 15.13 5.2873 28.02zm-22.652 76.905-14.932-47.096 47.096-14.932 14.932 47.096z"/>
   <path d="m5224.4 1451.8-21.931-0.43c0-3.1545 0.014-5.0757 0.027-5.7637 0.1393-7.1096 1.4294-12.935 3.8699-17.475 2.4406-4.5407 7.2434-9.6087 14.408-15.204 7.1645-5.5952 11.452-9.268 12.863-11.018 2.1764-2.7677 3.2978-5.843 3.3642-9.2258 0.092-4.7014-1.7067-8.7659-5.3963-12.194-3.6898-3.4276-8.7167-5.2039-15.081-5.3287-6.1349-0.1203-11.301 1.5279-15.497 4.9443-4.1968 3.4165-7.1394 8.693-8.8279 15.83l-22.135-3.1871c0.8318-10.251 5.3745-18.88 13.628-25.888 8.2533-7.0077 18.974-10.382 32.161-10.124 13.875 0.2721 24.841 4.115 32.897 11.528 8.0566 7.4136 11.991 15.937 11.802 25.569-0.1047 5.3322-1.7087 10.348-4.8119 15.048-3.1034 4.6998-9.6664 11.052-19.689 19.058-5.1862 4.1428-8.4206 7.4921-9.7039 10.048-1.2833 2.556-1.9329 7.1604-1.9485 13.814zm-22.568 32.079 0.4738-24.166 24.167 0.4737-0.4739 24.167z"/>
  </g>
  <g transform="matrix(-.51809 0 0 .51809 2659.7 1710.2)">
   <path transform="matrix(1.6763 0 0 1.7829 -4985.1 -520.77)" d="m3834.2 748.83a65.135 63.972 0 0 1 -65.135 63.972 65.135 63.972 0 0 1 -65.135 -63.972 65.135 63.972 0 0 1 65.135 -63.972 65.135 63.972 0 0 1 65.135 63.972z" fill="#ff0"/>
   <path d="m1369.4 816.79c-0.5627-0.0151-1.1061 5e-3 -1.6762 0.0523-2.2794 0.18694-4.6263 0.89006-6.8621 2.1477-4.2071 2.3665-6.7341 6.2996-8.2766 10.581-1.5665-0.83722-3.1225-1.7044-4.8193-2.2001-4.5656-1.3338-9.6482-1.196-14.196 1.362-4.5593 2.5647-7.3271 6.8612-8.6955 11.524-0.3277 1.1164-0.39 2.3043-0.5763 3.4573-3.8002-0.44054-7.9218-3e-3 -12.205 2.5668-10.725 6.4347-14.025 18.589-10.058 28.968 3.9672 10.379 15.04 19.028 31.744 19.591 10.599 0.35772 19.887 9.788 26.454 19.644 2.0185 3.0295 3.7333 6.0136 5.1858 8.748 1.604-0.52309 3.1958-1.1313 4.767-1.7286-1.5769-3.0275-3.4873-6.3814-5.7622-9.7957-6.9389-10.414-17.121-21.445-30.487-21.896-15.082-0.50904-24.043-7.9815-27.239-16.344-3.1964-8.3621-0.8104-17.576 7.9622-22.839 3.5182-2.1109 6.4421-2.3982 9.1147-2.043-0.018 2.064 0.064 4.0913 0.3666 6.0765 0.7166 4.6886 2.2475 9.0282 4.3479 12.205 1.0502 1.5886 2.2495 2.8766 3.7716 3.7716 1.522 0.89499 3.4786 1.2851 5.2906 0.68098 1.7794-0.59306 3.143-2.0328 3.8241-3.6144 0.681-1.5816 0.8361-3.3003 0.681-5.0812-0.3107-3.5618-1.8413-7.4408-4.3479-10.896-2.0872-2.877-5.0356-5.1982-8.486-6.7574 0.1575-1.1061 0.1706-2.2751 0.4715-3.3002 1.099-3.745 3.0989-6.7687 6.3383-8.5909 3.2513-1.8288 6.7513-1.933 10.319-0.89051 1.712 0.50006 3.3966 1.316 5.0288 2.3049-0.6155 3.5926-0.8536 7.2531-0.4191 10.634 0.5897 4.5841 1.8929 8.6249 4.1384 11.367 1.1228 1.3711 2.6071 2.519 4.505 2.7239 1.8978 0.20497 3.7876-0.69706 5.2383-2.1477 2.9671-2.9672 3.3337-7.3325 2.1478-11.262-1.1863-3.9299-3.7626-7.8095-7.1241-11.105-0.9149-0.89675-2.0122-1.6143-3.0384-2.4096 0.017-0.0322-0.017-0.0727 0-0.10476 1.1918-3.8624 3.2811-7.0447 6.4955-8.8528 3.3272-1.8715 6.3224-1.9644 9.2194-0.89051 2.8973 1.0739 5.7039 3.4951 7.91 6.9146 4.4123 6.8389 6.3108 17.562 2.6716 28.025v0.0523c-4.2758 12.362-0.5676 29.11 3.8762 43.059 1.2554 3.9401 2.5139 7.3758 3.7193 10.529 1.4295-0.93559 2.8589-1.8793 4.243-2.8811-1.0593-2.8287-2.1059-5.912-3.143-9.1671-4.3177-13.553-7.4014-29.858-3.9287-39.916v-0.0523c4.1595-11.958 2.1409-24.102-3.1954-32.373-2.668-4.1356-6.2014-7.3592-10.372-8.9052-1.5641-0.57975-3.2358-0.8999-4.9242-0.94289zm-13.567 21.163c0.1458 0.13645 0.3295 0.22759 0.4715 0.36668 2.8528 2.797 5.0119 6.1244 5.8669 8.9575 0.8549 2.8331 0.529 4.8139-0.8906 6.2336-0.7427 0.74277-1.0052 0.69688-1.1524 0.68099-0.1475-0.0151-0.554-0.15959-1.1524-0.89052-1.1971-1.4618-2.5309-4.8545-3.0383-8.8004-0.2687-2.0904-0.2799-4.3227-0.1039-6.5479zm-26.873 12.415c1.7748 1.1415 3.3927 2.5457 4.6622 4.2954 2.0021 2.7598 3.1973 6.055 3.4049 8.4337 0.104 1.1894-0.034 2.0873-0.262 2.6192-0.2289 0.53184-0.3714 0.70005-0.7856 0.83813-0.3814 0.12706-0.6288 0.12924-1.2049-0.20954-0.5761-0.3388-1.333-1.0993-2.0953-2.2525-1.5249-2.3064-2.938-6.0772-3.5621-10.162-0.1782-1.1668-0.1039-2.3635-0.1576-3.5621z" color="#000000" fill="#f60" style="block-progression:tb;text-indent:0;text-transform:none"/>
   <path d="m1402.9 949.9c-1.3948 0.45791-2.7646 1.0389-4.0859 1.8334-0.1307 0.0783-0.239 0.18129-0.3666 0.26191 1.5177-0.65691 3.0037-1.3554 4.4525-2.0953zm21.372 8.748c-7.687 8.0028-19.19 14.276-32.373 17.339 4.895 7.7583 15.684 9.8994 24.306 4.7145 8.0415-4.8361 11.354-14.338 8.067-22.053z" fill="#4d4d4d"/>
   <path d="m1429.7 921.56c-4.7591 17.196-26.669 32.472-51.021 36.092-8.9687 1.3332-16 0.0595-21.163-2.462-1.2121 8.5204 5.817 25.333 28.234 22.001 33.882-5.0365 59.389-31.701 43.95-55.631z" fill="#520"/>
   <path d="m1425.5 899.56c-2.942 19.293-29.501 37.586-56.103 41.54-9.9987 1.4863-17.257 0.62421-22.525-1.4144-1.1533 8.2931 9.2523 21.319 31.797 17.967 34.601-5.1434 64.348-33.774 46.831-58.093z" fill="#333"/>
   <path d="m1420.9 881.85c-19.537 27.735-50.766 45.904-86.118 46.516 3.1401 7.0284 11.608 16.158 34.678 12.729 34.794-5.172 69.585-34.84 51.441-59.245z" fill="#1a1a1a"/>
   <path d="m1429.7 921.56c-4.7591 17.196-26.669 32.472-51.021 36.092-8.9687 1.3332-16 0.0595-21.163-2.462-1.2121 8.5204 5.817 25.333 28.234 22.001 33.882-5.0365 59.389-31.701 43.95-55.631z" fill="#1a1a1a"/>
   <path d="m1292.9 905s-66.29-43.868-48.743-111.13c17.547-67.265 88.712-80.913 98.46-66.29 9.7487 14.623-38.019 20.472-56.541 42.894s-45.818 64.34 6.8239 134.53z" fill="#fff"/>
  </g>
 </g>
</svg>
